#!OML:ASF E:/inclinewalkrobotboard/Project1/Captureday1/Session1/subject1.ASF
:FULLY-SPECIFIED
:DEGREES
376
root 0 0 0 -1.965301568861118 -6.193719006397719 -5.521999592858915
lowerback 10.554645578784172 2.155666946470671 4.947125114805455
upperback 0.5214625716215631 3.535165953024449 1.623209500947949
thorax -5.189780221687036 1.644502427692762 -1.5831669168791338
lowerneck -18.005616436368474 -3.301383508286127 -1.9616847083304023
upperneck 19.433386927042136 -4.205878960400483 0.5668647194418056
head 9.081514586757393 -2.0277091124153586 -0.041678935831124586
rclavicle -6.841136931234119E-15 -1.6921280075672276E-15
rhumerus -31.470859682484544 -17.953411401065196 -80.03987479545631
rradius 23.462053629591423
rwrist 4.630568463789078
rhand -18.435943301134294 26.206602078401694
rfingers 7.125020000000016
rthumb 7.846829143580337 -3.6309084593146466
lclavicle -7.936409126231358E-15 -2.1960896547361116E-15
lhumerus -38.594602609763854 7.376444930149714 80.86564139766287
lradius 21.781529807102654
lwrist 2.3970209184951132
lhand -26.151420797263512 23.98842446781616
lfingers 7.125020000000024
lthumb 0.39487428581808626 53.96392441077317
rfemur 0.9831980527560864 3.9836342138404293 25.9524707184885
rtibia 42.34100843941522
rfoot -3.2869485681552915 -0.6400137283067489
rtoes -2.742124817460163
lfemur -25.929150849466257 -2.9766479580881713 -14.418037686438902
ltibia 22.77345413337236
lfoot -4.770627441210662 1.5700290857198715
ltoes 0.3388516066157763
377
root 0 0 0 -3.0256190178919597 -5.945691352868574 -3.204199319342839
lowerback 10.515870502876435 2.0828990424270204 2.8683903381753106
upperback 0.18096082401592867 3.1775865539887613 1.1498233306628705
thorax -5.614962724320326 1.515508327136609 -0.8662405276766273
lowerneck -17.028499298727446 -3.2950222519635375 -1.8121373802070044
upperneck 19.08718850315456 -4.198539570013688 0.6954106082514926
head 8.804093267534672 -2.031019780413915 -0.007519465479816023
rclavicle -4.757892244766469E-15 -2.2344357564655214E-15
rhumerus -32.24414252529299 -19.597274245108288 -79.39812110632705
rradius 21.990865762714506
rwrist 5.65435798563441
rhand -18.21085616687852 26.136711820021866
rfingers 7.12502000000002
rthumb 8.063154285936143 -3.689407087850441
lclavicle -5.3192867103691036E-15 -2.738832702690039E-15
lhumerus -39.03994988119008 8.36263039576048 79.9367980953434
lradius 21.296929877632426
lwrist 2.1437576089545844
lhand -26.11916466842603 24.062056261626605
lfingers 7.125020000000022
lthumb 0.4235922039911362 54.030133133883965
rfemur -6.228333771035255 2.593768308462097 24.293057246620922
rtibia 58.67541100756468
rfoot 9.172376547574856 -0.50198752564636
rtoes 8.402393081199381
lfemur -24.128180250055095 -2.1784119708678142 -15.92367619279495
ltibia 23.495519545040192
lfoot -5.341171938218935 0.5936312449823715
ltoes 1.101378714740008
378
root 0 0 0 -3.884077333438731 -5.526026840965894 -0.9115576933318175
lowerback 9.261507574144876 1.7715359261570085 0.4903615492054837
upperback -0.18734456673418048 2.450124439593852 0.7621266893296067
thorax -5.367168196538465 1.2146548485118556 0.1883575904563055
lowerneck -16.43009273945181 -2.718021305535771 -1.5667300563752167
upperneck 23.6695627014121 -3.606668844448595 0.7303438152544731
head 10.333736596260739 -1.669287742660547 0.008024794633199217
rclavicle -3.685771056411578E-15 -1.3837658444753923E-15
rhumerus -33.30832812531323 -21.43705115422039 -78.69396206649088
rradius 20.400104943368554
rwrist 6.615892542936433
rhand -17.99648618171612 25.984888747666055
rfingers 7.125020000000022
rthumb 8.269002590713006 -3.8256608522162665
lclavicle -4.104128334342727E-15 -2.0389949700429964E-15
lhumerus -38.899814571488605 8.538002648186897 79.6674779586469
lradius 21.213039905533726
lwrist 2.237207679044915
lhand -26.31001046874146 23.768869059880824
lfingers 7.125020000000021
lthumb 0.23830617291724643 53.731552106319135
rfemur -12.345329550922635 2.2304225021615203 26.677765613866377
rtibia 69.91200498539891
rfoot 8.522428818175648 -2.7214738273157573
rtoes 15.393358879032435
lfemur -17.271293996987048 -2.157900556026928 -20.399907254124283
ltibia 23.000376182681002
lfoot -6.638064597532054 -0.7802649651879627
ltoes 6.420941242767952
379
root 0 0 0 -4.362453867300994 -5.139728066721187 0.10413461928930579
lowerback 10.285488674307445 1.2635131352044848 -0.7539921301607084
upperback -0.058514902083678426 1.629178227373506 0.6730705820334275
thorax -5.844897541055868 0.8347736070173738 0.9094509818373422
lowerneck -16.65212402875852 -2.622180485544351 -1.5469492139838594
upperneck 21.784917474225217 -3.4094675072636065 0.5128157595601484
head 9.7904242491222 -1.611685602327447 -0.02569205522075929
rclavicle -3.604002273516499E-15 8.657580060097724E-16
rhumerus -34.104763159188266 -22.34879987676051 -78.49578333082496
rradius 19.538785682878313
rwrist 7.246772216029458
rhand -17.868006726007795 25.872384199634112
rfingers 7.125020000000022
rthumb 8.39240769087218 -3.913031202782591
lclavicle -3.667189880381712E-15 4.3368681090037885E-17
lhumerus -38.25194849879475 8.198223636892559 79.61552786494683
lradius 21.446542239699884
lwrist 2.3043144777618583
lhand -26.438443193890315 23.569736801203987
lfingers 7.125020000000021
lthumb 0.11114054963741893 53.54103825491693
rfemur -13.691873747396222 1.5769538753816799 26.466369908173892
rtibia 70.72098924369388
rfoot 5.690165256238487 -3.2974349209960514
rtoes 15.12912262094652
lfemur -7.068166447392693 -3.065378004289414 -24.870230261626993
ltibia 21.487469420337515
lfoot -10.78488185470202 -0.6439245695082589
ltoes 6.777536500782254
